<svg width="96" height="24" viewBox="0 0 96 24" fill="none" xmlns="http://www.w3.org/2000/svg">
<path d="M29.736 16.12C29.328 16.12 28.952 16.056 28.608 15.928C28.264 15.792 27.988 15.576 27.78 15.28C27.58 14.976 27.48 14.576 27.48 14.08C27.48 13.432 27.7 12.936 28.14 12.592C28.58 12.24 29.212 12.064 30.036 12.064H31.872V11.752C31.872 11.352 31.76 11.072 31.536 10.912C31.312 10.744 30.916 10.66 30.348 10.66C29.956 10.66 29.584 10.688 29.232 10.744C28.888 10.792 28.544 10.872 28.2 10.984V9.772C28.528 9.668 28.908 9.58 29.34 9.508C29.772 9.436 30.196 9.4 30.612 9.4C31.58 9.4 32.3 9.604 32.772 10.012C33.252 10.42 33.492 11.056 33.492 11.92V16H31.872V13.252H30.132C29.788 13.252 29.516 13.312 29.316 13.432C29.116 13.552 29.016 13.768 29.016 14.08C29.016 14.376 29.104 14.58 29.28 14.692C29.456 14.804 29.752 14.86 30.168 14.86C30.32 14.86 30.468 14.852 30.612 14.836C30.764 14.82 30.892 14.796 30.996 14.764V15.952C30.844 16 30.656 16.04 30.432 16.072C30.216 16.104 29.984 16.12 29.736 16.12ZM31.8665 19.168C31.3785 19.168 30.9945 19.072 30.7145 18.88C30.4345 18.688 30.2945 18.444 30.2945 18.148V17.584H29.6345L29.6945 16.612H31.4225V17.764C31.4225 18.02 31.5705 18.148 31.8665 18.148C32.1705 18.148 32.3225 18.02 32.3225 17.764V16.612H33.4745V17.884C33.4745 18.228 33.3465 18.528 33.0905 18.784C32.8345 19.04 32.4265 19.168 31.8665 19.168ZM34.9745 16V13.936C34.9745 13.568 35.0345 13.244 35.1545 12.964C35.2825 12.676 35.5305 12.476 35.8985 12.364L34.6745 12.04V10.492C35.0025 10.212 35.4385 9.96 35.9825 9.736C36.5345 9.512 37.1625 9.4 37.8665 9.4C38.5145 9.4 39.0665 9.484 39.5225 9.652C39.9865 9.82 40.3385 10.1 40.5785 10.492C40.8265 10.884 40.9505 11.416 40.9505 12.088V16H39.3305V12.052C39.3305 11.548 39.2105 11.192 38.9705 10.984C38.7385 10.768 38.3425 10.66 37.7825 10.66C37.4225 10.66 37.0905 10.712 36.7865 10.816C36.4905 10.92 36.2505 11.052 36.0665 11.212V11.38L37.3985 11.74V12.724C37.0785 12.804 36.8625 12.936 36.7505 13.12C36.6465 13.296 36.5945 13.572 36.5945 13.948V16H34.9745ZM45.1753 16.12C44.2073 16.12 43.4793 15.896 42.9913 15.448C42.5033 15 42.2593 14.388 42.2593 13.612V13.204C42.2593 12.932 42.3113 12.688 42.4153 12.472C42.5193 12.256 42.6353 12.064 42.7633 11.896C42.8993 11.728 43.0193 11.572 43.1233 11.428C43.2273 11.284 43.2793 11.148 43.2793 11.02C43.2793 10.9 43.2513 10.82 43.1953 10.78C43.1393 10.74 43.0393 10.72 42.8953 10.72H42.1153L42.2473 9.52H43.9273C44.5913 9.52 44.9233 9.828 44.9233 10.444C44.9233 10.716 44.8713 10.964 44.7673 11.188C44.6633 11.404 44.5393 11.612 44.3953 11.812C44.2593 12.012 44.1393 12.224 44.0353 12.448C43.9313 12.664 43.8793 12.912 43.8793 13.192V13.708C43.8793 14.476 44.3113 14.86 45.1753 14.86C46.0553 14.86 46.4953 14.46 46.4953 13.66V12.904C46.4953 12.6 46.4433 12.384 46.3393 12.256C46.2353 12.128 46.0513 12.064 45.7873 12.064H45.4513L45.5233 10.936H45.7393C46.0033 10.936 46.1953 10.868 46.3153 10.732C46.4353 10.596 46.4953 10.38 46.4953 10.084V9.4H48.1153V10.048C48.1153 10.416 48.0593 10.716 47.9473 10.948C47.8353 11.172 47.6153 11.356 47.2873 11.5C47.6233 11.652 47.8433 11.848 47.9473 12.088C48.0593 12.32 48.1153 12.612 48.1153 12.964V13.588C48.1153 14.364 47.8553 14.98 47.3353 15.436C46.8153 15.892 46.0953 16.12 45.1753 16.12ZM45.1355 8.632V7.564H44.1995V6.46H46.2275V7.528H48.7955L48.7355 8.632H45.1355ZM51.8315 16V12.016C51.8315 11.584 51.7475 11.252 51.5795 11.02C51.4115 10.78 51.0755 10.66 50.5715 10.66C50.3075 10.66 50.0275 10.692 49.7315 10.756C49.4355 10.812 49.1715 10.884 48.9395 10.972V9.784C49.1795 9.672 49.4755 9.58 49.8275 9.508C50.1795 9.436 50.5315 9.4 50.8835 9.4C51.7955 9.4 52.4515 9.596 52.8515 9.988C53.2515 10.372 53.4515 10.972 53.4515 11.788V16H51.8315ZM57.3192 16.12C57.1032 16.12 56.8712 16.104 56.6232 16.072C56.3832 16.04 56.1712 15.996 55.9872 15.94L54.1632 11.5H55.7352L57.1632 14.968C57.7632 14.968 58.1952 14.768 58.4592 14.368C58.7312 13.96 58.8672 13.356 58.8672 12.556C58.8672 12.076 58.8192 11.7 58.7232 11.428C58.6352 11.156 58.4872 10.964 58.2792 10.852C58.0712 10.732 57.7832 10.672 57.4152 10.672H56.9232V9.52H57.6432C58.5952 9.52 59.2912 9.772 59.7312 10.276C60.1792 10.772 60.4032 11.532 60.4032 12.556C60.4032 13.396 60.2712 14.08 60.0072 14.608C59.7432 15.128 59.3792 15.512 58.9152 15.76C58.4592 16 57.9272 16.12 57.3192 16.12Z" fill="black"/>
<path d="M8.397 6.00002C6.371 5.55602 2 6.09652 2 10.8935V20H4.935V16.8905H13.319V20H16.254V14.4475C16.603 14.1515 17.204 16.5115 18.3495 17.1125C19.026 17.4675 19.6075 17.6985 20.236 17.557C21.5975 17.2505 22.2485 16.3575 21.913 14.2255C21.284 14.9655 19.398 15.7715 19.188 14.2255V7.78452C18.9785 6.45152 17.763 3.83102 14.5765 4.00852H11.142C9.675 4.00002 7.495 6.00752 7.998 8.67252C8.154 9.50002 8.75 11.1525 10.8515 11.3375C11.69 11.412 13.0765 11.0715 13.915 9.11702" fill="#9E76B4"/>
<path d="M8.397 6.00002C6.371 5.55602 2 6.09652 2 10.8935V20H4.935V16.8905H13.319V20H16.254V14.4475C16.603 14.1515 17.204 16.5115 18.3495 17.1125C19.026 17.4675 19.6075 17.6985 20.236 17.557C21.5975 17.2505 22.2485 16.3575 21.913 14.2255C21.284 14.9655 19.398 15.7715 19.188 14.2255V7.78452C18.9785 6.45152 17.763 3.83102 14.5765 4.00852H11.142C9.675 4.00002 7.495 6.00752 7.998 8.67252C8.154 9.50002 8.75 11.1525 10.8515 11.3375C11.69 11.412 13.0765 11.0715 13.915 9.11702" stroke="black" stroke-linecap="round" stroke-linejoin="round"/>
<path d="M72.156 7.72V16H71.316V9.388L68.364 16H67.752L64.8 9.412V16H63.96V7.72H64.848L68.052 14.896L71.256 7.72H72.156ZM73.6776 12.712C73.6776 12.04 73.8096 11.452 74.0736 10.948C74.3456 10.436 74.7176 10.044 75.1896 9.772C75.6696 9.492 76.2096 9.352 76.8096 9.352C77.4336 9.352 77.9696 9.496 78.4176 9.784C78.8736 10.072 79.2016 10.44 79.4016 10.888V9.448H80.2416V16H79.4016V14.548C79.1936 14.996 78.8616 15.368 78.4056 15.664C77.9576 15.952 77.4216 16.096 76.7976 16.096C76.2056 16.096 75.6696 15.956 75.1896 15.676C74.7176 15.396 74.3456 15 74.0736 14.488C73.8096 13.976 73.6776 13.384 73.6776 12.712ZM79.4016 12.724C79.4016 12.196 79.2936 11.732 79.0776 11.332C78.8616 10.932 78.5656 10.624 78.1896 10.408C77.8216 10.192 77.4136 10.084 76.9656 10.084C76.5016 10.084 76.0856 10.188 75.7176 10.396C75.3496 10.604 75.0576 10.908 74.8416 11.308C74.6336 11.7 74.5296 12.168 74.5296 12.712C74.5296 13.248 74.6336 13.72 74.8416 14.128C75.0576 14.528 75.3496 14.836 75.7176 15.052C76.0856 15.26 76.5016 15.364 76.9656 15.364C77.4136 15.364 77.8216 15.256 78.1896 15.04C78.5656 14.824 78.8616 14.516 79.0776 14.116C79.2936 13.716 79.4016 13.252 79.4016 12.724ZM82.9872 10.888C83.1952 10.448 83.5232 10.084 83.9712 9.796C84.4272 9.5 84.9672 9.352 85.5912 9.352C86.1832 9.352 86.7152 9.492 87.1872 9.772C87.6672 10.044 88.0392 10.436 88.3032 10.948C88.5752 11.452 88.7112 12.04 88.7112 12.712C88.7112 13.384 88.5752 13.976 88.3032 14.488C88.0392 15 87.6672 15.396 87.1872 15.676C86.7152 15.956 86.1832 16.096 85.5912 16.096C84.9752 16.096 84.4392 15.952 83.9832 15.664C83.5272 15.368 83.1952 15 82.9872 14.56V19.096H82.1592V9.448H82.9872V10.888ZM87.8592 12.712C87.8592 12.168 87.7512 11.7 87.5352 11.308C87.3272 10.908 87.0392 10.604 86.6712 10.396C86.3032 10.188 85.8872 10.084 85.4232 10.084C84.9752 10.084 84.5632 10.192 84.1872 10.408C83.8192 10.624 83.5272 10.932 83.3112 11.332C83.0952 11.732 82.9872 12.196 82.9872 12.724C82.9872 13.252 83.0952 13.716 83.3112 14.116C83.5272 14.516 83.8192 14.824 84.1872 15.04C84.5632 15.256 84.9752 15.364 85.4232 15.364C85.8872 15.364 86.3032 15.26 86.6712 15.052C87.0392 14.836 87.3272 14.528 87.5352 14.128C87.7512 13.72 87.8592 13.248 87.8592 12.712ZM92.5129 16.096C91.7609 16.096 91.1449 15.924 90.6649 15.58C90.1929 15.228 89.9289 14.752 89.8729 14.152H90.7369C90.7769 14.52 90.9489 14.82 91.2529 15.052C91.5649 15.276 91.9809 15.388 92.5009 15.388C92.9569 15.388 93.3129 15.28 93.5689 15.064C93.8329 14.848 93.9649 14.58 93.9649 14.26C93.9649 14.036 93.8929 13.852 93.7489 13.708C93.6049 13.564 93.4209 13.452 93.1969 13.372C92.9809 13.284 92.6849 13.192 92.3089 13.096C91.8209 12.968 91.4249 12.84 91.1209 12.712C90.8169 12.584 90.5569 12.396 90.3409 12.148C90.1329 11.892 90.0289 11.552 90.0289 11.128C90.0289 10.808 90.1249 10.512 90.3169 10.24C90.5089 9.968 90.7809 9.752 91.1329 9.592C91.4849 9.432 91.8849 9.352 92.3329 9.352C93.0369 9.352 93.6049 9.532 94.0369 9.892C94.4689 10.244 94.7009 10.732 94.7329 11.356H93.8929C93.8689 10.972 93.7169 10.664 93.4369 10.432C93.1649 10.192 92.7889 10.072 92.3089 10.072C91.8849 10.072 91.5409 10.172 91.2769 10.372C91.0129 10.572 90.8809 10.82 90.8809 11.116C90.8809 11.372 90.9569 11.584 91.1089 11.752C91.2689 11.912 91.4649 12.04 91.6969 12.136C91.9289 12.224 92.2409 12.324 92.6329 12.436C93.1049 12.564 93.4809 12.688 93.7609 12.808C94.0409 12.928 94.2809 13.104 94.4809 13.336C94.6809 13.568 94.7849 13.876 94.7929 14.26C94.7929 14.612 94.6969 14.928 94.5049 15.208C94.3129 15.48 94.0449 15.696 93.7009 15.856C93.3569 16.016 92.9609 16.096 92.5129 16.096Z" fill="black"/>
</svg>
