<svg width="80" height="80" viewBox="0 0 80 80" fill="none" xmlns="http://www.w3.org/2000/svg">
<rect x="30" y="43" width="21" height="11" fill="white"/>
<path d="M56.32 36.6797L56.4313 37.2959L55.6931 37.4297C56.3859 37.3042 56.4287 37.2969 56.4313 37.2969V37.2979L56.4323 37.3008C56.4326 37.3022 56.433 37.304 56.4333 37.3057C56.4339 37.3091 56.4345 37.313 56.4352 37.3174C56.4367 37.3266 56.4383 37.3383 56.4401 37.3516C56.4438 37.378 56.448 37.4123 56.4518 37.4541C56.4596 37.5383 56.4661 37.6537 56.4645 37.7939C56.4613 38.0741 56.4254 38.4585 56.3015 38.9072C56.0743 39.7298 55.558 40.7338 54.4665 41.6934C54.8416 43.6987 54.7973 45.7621 54.3288 47.752C53.8252 49.8904 52.8477 51.8891 51.4684 53.6006C50.089 55.3121 48.3425 56.6938 46.3581 57.6426C44.3736 58.5913 42.2009 59.083 40.0007 59.083C37.8007 59.083 35.6285 58.5912 33.6442 57.6426C31.6598 56.6938 29.9133 55.3121 28.5339 53.6006C27.1545 51.8891 26.1771 49.8905 25.6735 47.752C25.2051 45.7628 25.1581 43.6998 25.5329 41.6943C24.4406 40.7348 23.9249 39.73 23.6979 38.9072C23.574 38.4581 23.5389 38.0733 23.5358 37.793C23.5343 37.6528 23.5407 37.5383 23.5485 37.4541C23.5524 37.412 23.5566 37.3771 23.5602 37.3506C23.5621 37.3376 23.5637 37.3265 23.5651 37.3174C23.5659 37.3128 23.5665 37.3082 23.5671 37.3047C23.5674 37.3029 23.5678 37.3013 23.5681 37.2998V37.2979L23.569 37.2969C23.5737 37.2973 23.6292 37.3065 24.3063 37.4297L23.569 37.2959L23.6804 36.6797H56.32ZM49.7184 44.0596C47.3743 44.7227 44.2263 45.1523 39.9997 45.1523C35.7709 45.1523 32.6256 44.7228 30.2809 44.0596C30.2464 45.08 30.3715 46.1015 30.6569 47.0859C31.0262 48.3593 31.6532 49.5439 32.4987 50.5664C33.3442 51.5888 34.3911 52.4279 35.5739 53.0312C36.7569 53.6346 38.0518 53.9903 39.3776 54.0752C40.7036 54.16 42.0333 53.9731 43.2839 53.5254C44.5345 53.0777 45.6796 52.3782 46.6491 51.4717C47.6186 50.5652 48.3924 49.47 48.9216 48.2539C49.4502 47.0389 49.7239 45.7288 49.7263 44.4043L49.7204 44.0879C49.7201 44.0784 49.7188 44.069 49.7184 44.0596ZM40.1247 19.2607H40.1286C40.131 19.2612 40.1347 19.2619 40.1393 19.2627C40.1486 19.2643 40.1626 19.2665 40.1804 19.2695C40.2159 19.2756 40.268 19.285 40.3356 19.2969C40.4717 19.3208 40.6709 19.3567 40.9235 19.4033C41.429 19.4965 42.1504 19.6338 43.0153 19.8115C44.7438 20.1667 47.0537 20.6843 49.3679 21.3301C51.6736 21.9736 54.0208 22.7548 55.8044 23.6465C56.6935 24.091 57.4831 24.5825 58.0602 25.126C58.6297 25.6623 59.0835 26.3374 59.0837 27.1406C59.0837 30.0044 58.1958 32.0666 57.2888 33.4199C56.8371 34.0937 56.3833 34.589 56.0368 34.9189C55.8638 35.0837 55.7169 35.2077 55.61 35.293C55.5567 35.3355 55.513 35.3691 55.4811 35.3926C55.4653 35.4043 55.452 35.4138 55.4421 35.4209C55.4372 35.4244 55.4328 35.4273 55.4294 35.4297C55.4277 35.4309 55.4258 35.4317 55.4245 35.4326L55.4225 35.4336L55.4216 35.4346L55.2302 35.5654H24.7702L24.5788 35.4346L25.0016 34.8154L24.5778 35.4346L24.5759 35.4326C24.5746 35.4317 24.5727 35.4309 24.571 35.4297C24.5676 35.4273 24.5633 35.4244 24.5583 35.4209C24.5483 35.4138 24.5352 35.4043 24.5192 35.3926C24.4873 35.3691 24.4438 35.3356 24.3903 35.293C24.2835 35.2077 24.1366 35.0838 23.9636 34.9189C23.6171 34.589 23.1632 34.0937 22.7116 33.4199C21.8045 32.0666 20.9167 30.0044 20.9167 27.1406C20.9168 26.3374 21.3706 25.6623 21.9401 25.126C22.5174 24.5824 23.3068 24.091 24.196 23.6465C25.9795 22.7548 28.3259 21.9736 30.6315 21.3301C32.9456 20.6843 35.2555 20.1667 36.9841 19.8115C37.8489 19.6338 38.5704 19.4966 39.0759 19.4033C39.3285 19.3567 39.5276 19.3208 39.6638 19.2969C39.7318 19.2849 39.7844 19.2757 39.82 19.2695C39.8378 19.2665 39.8518 19.2643 39.861 19.2627C39.8655 19.2619 39.8694 19.2611 39.8718 19.2607H39.8747H39.8757L39.9997 19.2393L40.1247 19.2607ZM39.9997 25.9785C39.5038 25.9786 39.0287 26.1759 38.6784 26.5254C38.328 26.8752 38.1306 27.3497 38.1306 27.8438C38.1306 28.3377 38.3281 28.8114 38.6784 29.1611C39.0287 29.5108 39.5037 29.7079 39.9997 29.708C40.4958 29.708 40.9715 29.5109 41.322 29.1611C41.6722 28.8114 41.8688 28.3377 41.8688 27.8438C41.8688 27.3497 41.6723 26.8752 41.322 26.5254C40.9716 26.1757 40.4957 25.9785 39.9997 25.9785Z" fill="#8F66FF" stroke="white" stroke-width="1.5"/>
</svg>
